<?xml version="1.0" encoding="utf-8"?>
<!-- Generator: Adobe Illustrator 21.0.0, SVG Export Plug-In . SVG Version: 6.00 Build 0)  -->
<svg version="1.1" id="图层_1" xmlns="http://www.w3.org/2000/svg" xmlns:xlink="http://www.w3.org/1999/xlink" x="0px" y="0px"
	 viewBox="0 0 444 276" style="enable-background:new 0 0 444 276;" xml:space="preserve">
<style type="text/css">
	.st0{fill:#EEF1FA;}
	.st1{fill:#FFFFFF;}
	.st2{opacity:0.6;}
	.st3{opacity:0.8;fill:#0098FF;}
</style>
<g>
	<g>
		<path class="st0" d="M10,276h424c5.5,0,10-4.5,10-10V10c0-5.5-4.5-10-10-10L10,0C4.5,0,0,4.5,0,10l0,256C0,271.5,4.5,276,10,276z"
			/>
		<g>
			<path class="st1" d="M288,69.5h86c3.9,0,7-3.1,7-7v0c0-3.9-3.1-7-7-7h-86c-3.9,0-7,3.1-7,7v0C281,66.4,284.1,69.5,288,69.5z"/>
		</g>
		<g>
			<path class="st1" d="M308,113.5h66c3.9,0,7-3.1,7-7v0c0-3.9-3.1-7-7-7h-66c-3.9,0-7,3.1-7,7v0C301,110.4,304.1,113.5,308,113.5z"
				/>
		</g>
		<g>
			<path class="st1" d="M308,230h66c3.9,0,7-3.1,7-7l0,0c0-3.9-3.1-7-7-7h-66c-3.9,0-7,3.1-7,7l0,0C301,226.9,304.1,230,308,230z"/>
		</g>
		<g>
			<path class="st1" d="M68,230h206c3.9,0,7-3.1,7-7l0,0c0-3.9-3.1-7-7-7H68c-3.9,0-7,3.1-7,7l0,0C61,226.9,64.1,230,68,230z"/>
		</g>
		<g>
			<path class="st1" d="M201.5,113.5H264c3.9,0,7-3.1,7-7v0c0-3.9-3.1-7-7-7h-62.5c-3.9,0-7,3.1-7,7v0
				C194.5,110.4,197.6,113.5,201.5,113.5z"/>
		</g>
		<g>
			<path class="st1" d="M188,157.5h186c3.9,0,7-3.1,7-7l0,0c0-3.9-3.1-7-7-7H188c-3.9,0-7,3.1-7,7l0,0
				C181,154.4,184.1,157.5,188,157.5z"/>
		</g>
		<g>
			<path class="st1" d="M228,69.5h16c3.9,0,7-3.1,7-7v0c0-3.9-3.1-7-7-7h-16c-3.9,0-7,3.1-7,7v0C221,66.4,224.1,69.5,228,69.5z"/>
		</g>
	</g>
	<g>
		<path class="st1" d="M171.3,179.5l-3.9-31.6c-0.2-1.8-1.7-3.1-3.5-3.1H158c9.6-13.9,11.4-31.8,4.8-47.3
			c-10.7-25.2-39.7-37-64.9-26.4s-37,39.7-26.4,64.9c1.3,3.1,2.9,6,4.8,8.8h-6c-1.8,0-3.3,1.3-3.5,3.1L63,179.5
			c-0.2,1.9,1.2,3.7,3.1,3.9c0.1,0,0.3,0,0.4,0h18.9c0.7,0,1.4-0.2,1.9-0.6l5.9-4H141l5.9,4c0.6,0.4,1.3,0.6,1.9,0.6h18.9
			c2,0,3.5-1.6,3.5-3.6C171.3,179.7,171.3,179.6,171.3,179.5L171.3,179.5z M87.1,86.6c16.6-16.6,43.5-16.6,60.2,0s16.6,43.5,0,60.2
			s-43.5,16.6-60.2,0c-8-8-12.5-18.8-12.5-30.1C74.6,105.4,79.1,94.6,87.1,86.6z M149.9,176.4l-5.9-4c-0.6-0.4-1.3-0.6-1.9-0.6H92.2
			c-0.7,0-1.4,0.2-1.9,0.6l-5.9,4H70.5l2.9-24.7h8.8c19.3,19.3,50.7,19.3,70,0c0,0,0,0,0,0h8.6l3,24.7H149.9z"/>
		<path class="st1" d="M117.1,151.9c19.4,0,35.2-15.8,35.2-35.2c0-19.4-15.8-35.2-35.2-35.2s-35.2,15.8-35.2,35.2
			c0,9.3,3.7,18.3,10.3,24.9C98.8,148.2,107.8,151.9,117.1,151.9z M97.2,96.8c11-11,28.9-11,39.9,0c11,11,11,28.9,0,39.9
			s-28.9,11-39.9,0c-5.3-5.3-8.3-12.5-8.3-19.9C88.9,109.2,91.9,102,97.2,96.8z"/>
		<path class="st1" d="M112.7,111.3l4.5-3.1l4.5,3.1l-1.6-5.2l4.3-3.3l-5.5-0.1l-1.8-5.2l-1.8,5.2l-5.5,0.1l4.3,3.3
			C114.3,106.1,112.7,111.3,112.7,111.3z M122.3,120.7l0.8,3.3l1.4-3.1l3.4,0.3l-2.5-2.3l1.3-3.1l-3,1.6l-2.6-2.2l0.6,3.3l-2.9,1.8
			L122.3,120.7L122.3,120.7z M109.8,120.9l1.4,3.1l0.8-3.3l3.4-0.4l-2.9-1.8l0.6-3.3l-2.6,2.2l-3-1.6l1.3,3.1l-2.5,2.3L109.8,120.9z
			 M129.8,110.6l1.3,3.1l0.9-3.3l3.4-0.3l-2.8-1.9l0.8-3.3l-2.7,2.1l-2.9-1.7l1.2,3.2l-2.6,2.2L129.8,110.6L129.8,110.6z
			 M102.3,110.5l0.9,3.3l1.3-3.1l3.4,0.2l-2.6-2.2l1.2-3.2l-2.9,1.7L101,105l0.8,3.3l-2.8,1.9C98.9,110.2,102.3,110.5,102.3,110.5z
			 M130.2,127.6h-26.1c-1.9,0-3.5,1.6-3.5,3.5s1.6,3.5,3.5,3.5h26.1c1.9,0,3.5-1.6,3.5-3.5S132.1,127.6,130.2,127.6z"/>
	</g>
	<g class="st2">
		<circle class="st3" cx="222" cy="143.5" r="75.3"/>
		<g>
			<path class="st1" d="M258.1,114.7h-13.6c-0.7-0.6-2.4-2.6-3.2-3.7c-3.1-3.9-6-7.5-9.1-7.5H212c-2.8,0-5.4,2.8-9.5,7.4
				c-0.9,1-2.8,3.2-3.5,3.7h-12.2c-4.3,0-7.9,3.5-7.9,7.9v54.6c0,4.4,3.5,7.9,7.9,7.9h71.2c4.3,0,7.9-3.5,7.9-7.9l0-54.6
				C266,118.2,262.4,114.7,258.1,114.7z M263.5,177.2c0,3-2.4,5.5-5.4,5.5h-71.2c-3,0-5.4-2.4-5.4-5.5v-54.6c0-3,2.4-5.5,5.4-5.5
				h12.5c0.1,0,0.3,0,0.4-0.1c0.9-0.3,2.1-1.6,4.6-4.5c3.2-3.7,5.9-6.6,7.6-6.6h20.3c1.9,0,4.8,3.6,7.2,6.6c2.3,2.9,3.5,4.2,4.3,4.5
				c0.1,0.1,0.3,0.1,0.4,0.1h13.9c3,0,5.4,2.4,5.4,5.5L263.5,177.2L263.5,177.2z"/>
			<path class="st1" d="M222.5,125.6c-11.9,0-21.5,9.7-21.5,21.6c0,11.9,9.7,21.6,21.5,21.6c6,0,11.5-2.4,15.6-6.8
				c0.7-0.7,0.7-1.9-0.1-2.6c-0.7-0.7-1.9-0.7-2.6,0.1c-3.4,3.6-8,5.6-13,5.6c-9.9,0-17.9-8.1-17.9-17.9c0-9.9,8-18,17.9-18
				c9.9,0,17.9,8.1,17.9,18c0,1,0.8,1.8,1.8,1.8c1,0,1.8-0.8,1.8-1.8C244,135.2,234.4,125.6,222.5,125.6z"/>
		</g>
	</g>
</g>
</svg>
