<?xml version="1.0" encoding="utf-8"?>
<!-- Generator: Adobe Illustrator 21.0.0, SVG Export Plug-In . SVG Version: 6.00 Build 0)  -->
<svg version="1.1" id="图层_1" xmlns="http://www.w3.org/2000/svg" xmlns:xlink="http://www.w3.org/1999/xlink" x="0px" y="0px"
	 viewBox="0 0 444 276" style="enable-background:new 0 0 444 276;" xml:space="preserve">
<style type="text/css">
	.st0{fill:#EEF1FA;}
	.st1{fill:#DCE1EE;}
	.st2{fill:#E1E7F9;}
	.st3{fill:#FFFFFF;}
	.st4{opacity:0.6;}
	.st5{opacity:0.8;fill:#0098FF;}
</style>
<g>
	<path class="st0" d="M434,276H10c-5.5,0-10-4.5-10-10V10C0,4.5,4.5,0,10,0h424c5.5,0,10,4.5,10,10v256C444,271.5,439.5,276,434,276
		z"/>
	<path class="st1" d="M316.7,201.2l-50.2-19.6c0,0-9.6-3.7-13.3-7.4c-2.4-2.3-2.2-7.9-0.1-15c2.1-7.1,27.8-35.8,27.8-62
		c0-40.4-26.5-73.1-59.2-73.1c-32.7,0-59.2,32.7-59.2,73.1c0,25,22.9,54.9,25.7,60.3c2.8,5.4,2.1,13.7-0.1,16.2
		c-3.4,3.8-15.6,7.5-15.6,7.5l-45.2,20.2c-10.6,3.8-18.8,13.8-18.8,25v5.3c0,12.3,10,19.8,22.2,19.8h75.9h26h80.8
		c12.3,0,22.2-7.5,22.2-19.8v-5.3C335.6,215.3,327.3,205,316.7,201.2L316.7,201.2z"/>
	<g>
		<path class="st2" d="M268,232.1H176c-5.5,0-10-4.5-10-10v-49.6c0-5.5,4.5-10,10-10H268c5.5,0,10,4.5,10,10v49.6
			C278,227.6,273.5,232.1,268,232.1z"/>
		<g>
			<path class="st3" d="M205.4,180h-21.7c-1,0-1.8-0.8-1.8-1.8l0,0c0-1,0.8-1.8,1.8-1.8h21.7c1,0,1.8,0.8,1.8,1.8l0,0
				C207.1,179.2,206.3,180,205.4,180z"/>
		</g>
		<g>
			<path class="st3" d="M200.3,191.1h-16.6c-1,0-1.8-0.8-1.8-1.8l0,0c0-1,0.8-1.8,1.8-1.8h16.6c1,0,1.8,0.8,1.8,1.8l0,0
				C202.1,190.3,201.3,191.1,200.3,191.1z"/>
		</g>
		<g>
			<path class="st3" d="M200.3,220.5h-16.6c-1,0-1.8-0.8-1.8-1.8l0,0c0-1,0.8-1.8,1.8-1.8h16.6c1,0,1.8,0.8,1.8,1.8l0,0
				C202.1,219.7,201.3,220.5,200.3,220.5z"/>
		</g>
		<g>
			<path class="st3" d="M260.8,220.5h-51.9c-1,0-1.8-0.8-1.8-1.8l0,0c0-1,0.8-1.8,1.8-1.8h51.9c1,0,1.8,0.8,1.8,1.8l0,0
				C262.6,219.7,261.8,220.5,260.8,220.5z"/>
		</g>
		<g>
			<path class="st3" d="M227.2,191.1h-15.8c-1,0-1.8-0.8-1.8-1.8l0,0c0-1,0.8-1.8,1.8-1.8h15.8c1,0,1.8,0.8,1.8,1.8l0,0
				C228.9,190.3,228.1,191.1,227.2,191.1z"/>
		</g>
		<g>
			<path class="st3" d="M230.6,202.2h-46.9c-1,0-1.8-0.8-1.8-1.8l0,0c0-1,0.8-1.8,1.8-1.8h46.9c1,0,1.8,0.8,1.8,1.8l0,0
				C232.3,201.4,231.5,202.2,230.6,202.2z"/>
		</g>
		<g>
			<path class="st3" d="M220.5,180h-4c-1,0-1.8-0.8-1.8-1.8l0,0c0-1,0.8-1.8,1.8-1.8h4c1,0,1.8,0.8,1.8,1.8l0,0
				C222.3,179.2,221.5,180,220.5,180z"/>
		</g>
		<path class="st3" d="M261.1,204.3l-7.8-3c0,0-1.5-0.6-2.1-1.1c-0.4-0.4-0.3-1.2,0-2.3s4.3-5.5,4.3-9.6c0-6.2-4.1-11.3-9.2-11.3
			c-5.1,0-9.2,5.1-9.2,11.3c0,3.9,3.5,8.5,4,9.3c0.4,0.8,0.3,2.1,0,2.5c-0.5,0.6-2.4,1.2-2.4,1.2l-7,3.1c-1.6,0.6-2.9,2.1-2.9,3.9
			v0.8c0,1.9,1.5,3.1,3.4,3.1h11.7h4h12.5c1.9,0,3.4-1.2,3.4-3.1v-0.8C264,206.5,262.8,204.9,261.1,204.3L261.1,204.3z"/>
	</g>
	<g class="st4">
		<circle class="st5" cx="222" cy="138" r="75.3"/>
		<g>
			<path class="st3" d="M258.1,109.2h-13.6c-0.7-0.6-2.4-2.6-3.2-3.7c-3.1-3.9-6-7.5-9.1-7.5H212c-2.8,0-5.4,2.8-9.5,7.4
				c-0.9,1-2.8,3.2-3.5,3.7h-12.2c-4.3,0-7.9,3.5-7.9,7.9v54.6c0,4.4,3.5,7.9,7.9,7.9h71.2c4.3,0,7.9-3.5,7.9-7.9l0-54.6
				C266,112.7,262.4,109.2,258.1,109.2z M263.5,171.7c0,3-2.4,5.5-5.4,5.5h-71.2c-3,0-5.4-2.4-5.4-5.5v-54.6c0-3,2.4-5.5,5.4-5.5
				h12.5c0.1,0,0.3,0,0.4-0.1c0.9-0.3,2.1-1.6,4.6-4.5c3.2-3.7,5.9-6.6,7.6-6.6h20.3c1.9,0,4.8,3.6,7.2,6.6c2.3,2.9,3.5,4.2,4.3,4.5
				c0.1,0.1,0.3,0.1,0.4,0.1h13.9c3,0,5.4,2.4,5.4,5.5L263.5,171.7L263.5,171.7z"/>
			<path class="st3" d="M222.5,120.1c-11.9,0-21.5,9.7-21.5,21.6c0,11.9,9.7,21.6,21.5,21.6c6,0,11.5-2.4,15.6-6.8
				c0.7-0.7,0.7-1.9-0.1-2.6c-0.7-0.7-1.9-0.7-2.6,0.1c-3.4,3.6-8,5.6-13,5.6c-9.9,0-17.9-8.1-17.9-17.9c0-9.9,8-18,17.9-18
				c9.9,0,17.9,8.1,17.9,18c0,1,0.8,1.8,1.8,1.8c1,0,1.8-0.8,1.8-1.8C244,129.7,234.4,120.1,222.5,120.1z"/>
		</g>
	</g>
</g>
</svg>
