<?xml version="1.0" encoding="utf-8"?>
<!-- Generator: Adobe Illustrator 21.0.0, SVG Export Plug-In . SVG Version: 6.00 Build 0)  -->
<svg version="1.1" id="图层_1" xmlns="http://www.w3.org/2000/svg" xmlns:xlink="http://www.w3.org/1999/xlink" x="0px" y="0px"
	 viewBox="0 0 444 276" style="enable-background:new 0 0 444 276;" xml:space="preserve">
<style type="text/css">
	.st0{fill:#EEF1FA;}
	.st1{fill:#FFFFFF;}
	.st2{opacity:0.6;}
	.st3{opacity:0.8;fill:#0098FF;}
</style>
<g>
	<g>
		<g>
			<path class="st0" d="M434.5,276.8h-424c-5.5,0-10-4.5-10-10v-256c0-5.5,4.5-10,10-10h424c5.5,0,10,4.5,10,10v256
				C444.5,272.3,440,276.8,434.5,276.8z"/>
			<g>
				<path class="st1" d="M156.5,70.3h-86c-3.9,0-7-3.1-7-7v0c0-3.9,3.1-7,7-7h86c3.9,0,7,3.1,7,7v0
					C163.5,67.2,160.3,70.3,156.5,70.3z"/>
			</g>
			<g>
				<path class="st1" d="M136.5,114.3h-66c-3.9,0-7-3.1-7-7v0c0-3.9,3.1-7,7-7h66c3.9,0,7,3.1,7,7v0
					C143.5,111.2,140.3,114.3,136.5,114.3z"/>
			</g>
			<g>
				<path class="st1" d="M136.5,230.8h-66c-3.9,0-7-3.1-7-7v0c0-3.9,3.1-7,7-7h66c3.9,0,7,3.1,7,7v0
					C143.5,227.7,140.3,230.8,136.5,230.8z"/>
			</g>
			<g>
				<path class="st1" d="M376.5,230.8h-206c-3.9,0-7-3.1-7-7v0c0-3.9,3.1-7,7-7h206c3.9,0,7,3.1,7,7v0
					C383.5,227.7,380.3,230.8,376.5,230.8z"/>
			</g>
			<g>
				<path class="st1" d="M243,114.3h-62.5c-3.9,0-7-3.1-7-7v0c0-3.9,3.1-7,7-7H243c3.9,0,7,3.1,7,7v0
					C250,111.2,246.8,114.3,243,114.3z"/>
			</g>
			<g>
				<path class="st1" d="M256.5,158.3h-186c-3.9,0-7-3.1-7-7v0c0-3.9,3.1-7,7-7h186c3.9,0,7,3.1,7,7v0
					C263.5,155.2,260.3,158.3,256.5,158.3z"/>
			</g>
			<g>
				<path class="st1" d="M216.5,70.3h-16c-3.9,0-7-3.1-7-7v0c0-3.9,3.1-7,7-7h16c3.9,0,7,3.1,7,7v0
					C223.5,67.2,220.3,70.3,216.5,70.3z"/>
			</g>
		</g>
		<path class="st1" d="M377.7,166.8l-30.8-12c0,0-5.9-2.3-8.1-4.5c-1.5-1.4-1.4-4.8-0.1-9.2c1.3-4.3,17.1-22,17.1-38
			c0-24.7-16.3-44.8-36.3-44.8c-20.1,0-36.3,20.1-36.3,44.8c0,15.3,14.1,33.6,15.8,37c1.7,3.3,1.3,8.4-0.1,9.9
			c-2.1,2.3-9.6,4.6-9.6,4.6l-27.7,12.4c-6.5,2.3-11.6,8.4-11.6,15.3v3.3c0,7.5,6.1,12.1,13.6,12.1h46.5h15.9h49.5
			c7.5,0,13.6-4.6,13.6-12.1v-3.3C389.2,175.4,384.1,169.1,377.7,166.8L377.7,166.8z"/>
	</g>
	<g class="st2">
		<circle class="st3" cx="222.5" cy="138.8" r="75.3"/>
		<g>
			<path class="st1" d="M258.6,110H245c-0.7-0.6-2.4-2.6-3.2-3.7c-3.1-3.9-6-7.5-9.1-7.5h-20.3c-2.8,0-5.4,2.8-9.5,7.4
				c-0.9,1-2.8,3.2-3.5,3.7h-12.2c-4.3,0-7.9,3.5-7.9,7.9v54.6c0,4.4,3.5,7.9,7.9,7.9h71.2c4.3,0,7.9-3.5,7.9-7.9v-54.6
				C266.5,113.5,262.9,110,258.6,110z M264,172.5c0,3-2.4,5.5-5.4,5.5h-71.2c-3,0-5.4-2.4-5.4-5.5v-54.6c0-3,2.4-5.5,5.4-5.5h12.5
				c0.1,0,0.3,0,0.4-0.1c0.9-0.3,2.1-1.6,4.6-4.5c3.2-3.7,5.9-6.6,7.6-6.6h20.3c1.9,0,4.8,3.6,7.2,6.6c2.3,2.9,3.5,4.2,4.3,4.5
				c0.1,0.1,0.3,0.1,0.4,0.1h13.9c3,0,5.4,2.4,5.4,5.5L264,172.5L264,172.5z"/>
			<path class="st1" d="M223,120.9c-11.9,0-21.5,9.7-21.5,21.6c0,11.9,9.7,21.6,21.5,21.6c6,0,11.5-2.4,15.6-6.8
				c0.7-0.7,0.7-1.9-0.1-2.6c-0.7-0.7-1.9-0.7-2.6,0.1c-3.4,3.6-8,5.6-13,5.6c-9.9,0-17.9-8.1-17.9-17.9c0-9.9,8-18,17.9-18
				c9.9,0,17.9,8.1,17.9,18c0,1,0.8,1.8,1.8,1.8c1,0,1.8-0.8,1.8-1.8C244.5,130.6,234.8,120.9,223,120.9z"/>
		</g>
	</g>
</g>
</svg>
