<?xml version="1.0" encoding="utf-8"?>
<!-- Generator: Adobe Illustrator 16.0.0, SVG Export Plug-In . SVG Version: 6.00 Build 0)  -->
<!DOCTYPE svg PUBLIC "-//W3C//DTD SVG 1.1//EN" "http://www.w3.org/Graphics/SVG/1.1/DTD/svg11.dtd">
<svg version="1.1" id="图层_1" xmlns="http://www.w3.org/2000/svg" xmlns:xlink="http://www.w3.org/1999/xlink" x="0px" y="0px"
	 width="750px" height="400px" viewBox="0 0 750 400" enable-background="new 0 0 750 400" xml:space="preserve">
<rect fill="#D62528" width="750" height="400"/>
<g opacity="0.2">
	<path fill="#FFFFFF" d="M550.094,233.338l35.715-90.605l37.696,90.605H550.094z M475.359,233.338l35.715-90.605l37.695,90.605
		H475.359z M689.638,212.835l-1.319,5.291h-23.812l-3.307-5.291H689.638 M690.965,205.562h-32.408l-2.645-5.291h35.712
		 M692.945,192.993h-39.68l-2.647-5.288h42.992 M693.61,180.429h-46.298l-1.982-5.29h48.28 M692.945,167.203h-50.922l-1.985-5.293
		h52.247 M690.965,154.637h-54.235l-2.641-5.291h55.549"/>
	<path fill="#FFFFFF" d="M561.338,47.497c28.438,0,53.569,8.598,76.718,25.13c11.242,7.938,21.824,18.52,29.759,29.763
		c7.936,9.92,18.52,25.13,19.843,38.357c-9.261,1.984-20.503,0-30.425,0h-25.79L596.39,60.063l-36.377,91.929l-38.356-91.268
		l-67.459,173.935l30.424,38.36H640.7l28.438-41.667l-2.643-6.614c5.287,0,13.888-1.321,18.515,0.662
		c-3.967,19.844-21.823,39.684-35.712,52.912c-16.535,14.549-36.375,25.131-57.541,30.418
		c-42.324,9.922-89.281-2.644-121.025-32.405c-31.745-29.76-46.954-76.054-39.68-119.042c8.596-48.941,46.294-90.605,93.91-104.494
		C536.205,48.82,548.77,47.497,561.338,47.497L561.338,47.497z"/>
</g>
<g>
	<path fill="#FFFFFF" d="M71.755,88.916l7.694-19.61l8.121,19.61H71.755z M55.656,88.916l7.693-19.61l8.121,19.61H55.656z
		 M101.817,84.479l-0.285,1.146h-5.129l-0.712-1.146H101.817 M102.102,82.904h-6.981l-0.57-1.146h7.693 M102.529,80.185h-8.548
		l-0.57-1.145h9.261 M102.672,77.465h-9.974l-0.427-1.146h10.4 M102.529,74.603h-10.97l-0.428-1.146h11.256 M102.102,71.882H90.419
		l-0.57-1.145h11.967"/>
	<path fill="#FFFFFF" d="M74.177,48.694c6.126,0,11.541,1.861,16.527,5.439c2.421,1.718,4.702,4.008,6.411,6.442
		c1.709,2.146,3.99,5.439,4.274,8.302c-1.995,0.429-4.416,0-6.554,0h-5.556l-7.551-17.463L73.892,71.31l-8.263-19.753L51.097,89.202
		l6.554,8.302h33.624l6.126-9.017l-0.57-1.432c1.14,0,2.992-0.286,3.99,0.144c-0.855,4.294-4.702,8.588-7.694,11.452
		c-3.562,3.149-7.835,5.439-12.395,6.583c-9.118,2.147-19.234-0.572-26.072-7.013c-6.839-6.442-10.116-16.461-8.549-25.765
		c1.853-10.592,9.974-19.61,20.231-22.616C68.763,48.98,71.47,48.694,74.177,48.694L74.177,48.694z"/>
</g>
<text transform="matrix(1 0 0 1 122.5 89.3662)" fill="#FFFFFF" font-family="'MicrosoftYaHei'" font-size="40">招商银行</text>
</svg>
